<svg xmlns="http://www.w3.org/2000/svg" xmlns:xlink="http://www.w3.org/1999/xlink" viewBox="0 0 36.47 36.47"><defs><style>.cls-1{isolation:isolate;}.cls-2{fill:url(#radial-gradient);}.cls-3,.cls-4{mix-blend-mode:multiply;}.cls-3{fill:url(#radial-gradient-2);}.cls-5{fill:url(#radial-gradient-3);}.cls-6{fill:url(#radial-gradient-4);}.cls-7{fill:url(#radial-gradient-5);}.cls-8{fill:url(#radial-gradient-6);}.cls-9{fill:url(#radial-gradient-7);}.cls-10{fill:#b7d333;}.cls-11{mix-blend-mode:screen;}.cls-12{fill:#c3e8fa;opacity:0.7;mix-blend-mode:color-dodge;}</style><radialGradient id="radial-gradient" cx="-3.95" cy="13.52" r="39.36" gradientUnits="userSpaceOnUse"><stop offset="0" stop-color="#e3f3fc"/><stop offset="0.47" stop-color="#00bbf1"/><stop offset="0.98" stop-color="#00466c"/></radialGradient><radialGradient id="radial-gradient-2" cx="-0.23" cy="21.08" r="45.55" xlink:href="#radial-gradient"/><radialGradient id="radial-gradient-3" cx="8.4" cy="5.33" r="5.88" xlink:href="#radial-gradient"/><radialGradient id="radial-gradient-4" cx="8.96" cy="26.13" r="35.25" xlink:href="#radial-gradient"/><radialGradient id="radial-gradient-5" cx="8.44" cy="25.99" r="35.89" xlink:href="#radial-gradient"/><radialGradient id="radial-gradient-6" cx="9.26" cy="26.09" r="35.22" xlink:href="#radial-gradient"/><radialGradient id="radial-gradient-7" cx="9.23" cy="26.23" r="35.21" xlink:href="#radial-gradient"/></defs><g class="cls-1"><g id="Слой_2" data-name="Слой 2"><g id="Layer_1" data-name="Layer 1"><path class="cls-2" d="M36.47,18.23A18.24,18.24,0,1,1,18.23,0,18.24,18.24,0,0,1,36.47,18.23Z"/><path class="cls-3" d="M18.23,0A18.24,18.24,0,1,0,36.47,18.23,18.23,18.23,0,0,0,18.23,0ZM16.87,31.54A15.09,15.09,0,1,1,32,16.45,15.1,15.1,0,0,1,16.87,31.54Z"/><g class="cls-4"><path class="cls-5" d="M3,9.82c.36-.43.92-.42,1.37-.65.62-.31.43-1.08.94-1.36s.82.07,1.2-.15A1,1,0,0,0,6.91,7c0-.18.45-.35.63-.41s.6,0,.73-.16.65.29,1.1.16C10,6.38,9.23,5.74,9,5.5c-.63-.73.36-1.07.87-1.37a1.88,1.88,0,0,0,1-1.28c.08-.35.69-.41,1-.54s.59-.59,1-.63,2.25.26,2.1-.74C15,.87,15,.37,15,.29A19.32,19.32,0,0,0,1.78,10.36,5.44,5.44,0,0,0,3,9.82Z"/><path class="cls-6" d="M21.05.22a1.74,1.74,0,0,1,.43.92c0,.37-.3.41-.6.52a2.4,2.4,0,0,0-1.44,1.15.22.22,0,0,0,0,.08.8.8,0,0,0,.75.25,10.53,10.53,0,0,1,1.26-.07c.47,0,.93.11,1.4.17a21.21,21.21,0,0,1,2.52.19A2.7,2.7,0,0,1,27,4.7a4.69,4.69,0,0,0,1.74,1.77,2.57,2.57,0,0,1,1.48,1.41,12.74,12.74,0,0,0,1.58,2.42,3.14,3.14,0,0,1,.52,1.09A2.4,2.4,0,0,1,32,12.64a.09.09,0,0,1-.1,0,2.9,2.9,0,0,1-.71-.21,1,1,0,0,1-.28.65h0a1.11,1.11,0,0,1,.19.4c0,.21.12.44.11.62s-.12.85.2,1.06.32.61.47.65.33.31.64-.42-.08-.59.3-.73.55.15.44.49-.21.43-.08.67a1.57,1.57,0,0,1-.1,1.21,1.26,1.26,0,0,0-.22,1.18c.2.34,0,.56-.16.73s-.45.67-.38.89.23.54.45.63.61.21.84,0,.37-.69.78-.64.84-.48,1.18-.93.17-1,.65-1.31C35.83,9,29.38,1.53,21.05.22Z"/><path class="cls-7" d="M34.86,22.41A2.33,2.33,0,0,1,34,23.58c-.17.11-.17.6-.27,1.06a5.46,5.46,0,0,0,.34,2.57,17.33,17.33,0,0,0,1.79-5.47C35.64,21.78,35,21.92,34.86,22.41Z"/><path class="cls-8" d="M26.48,21.45c-.29-.45-.72-.43-.64-.84a.94.94,0,0,0-.19-.9c-.17-.12-.25-.83-.6-.28a3.22,3.22,0,0,1-.73.89c-.18.13-.12.26-.27.64s-.69.55-.85.62,0-.11-.12-.58.08-.52-.09-.93.14-.19-.36-.71-.84-.38-.66-.88a1.35,1.35,0,0,1,.69-.79c.22-.12,1.15-1,1.61-.77a1.46,1.46,0,0,0,1.19,0c.22-.15.78-.18.67-.55a.74.74,0,0,0-.7-.54c-.32,0-.71-.27-.76-.49s.09-.27-.28-.67a3.42,3.42,0,0,1-.6-.86,4.59,4.59,0,0,1-.29-1.62c0-.94.21-1-.12-1.21s-.16-.59-.05-.89.6-.56.31-1,.06-.43-.26-.74l-.32-.26a3.3,3.3,0,0,1-.37-.32.75.75,0,0,0-.52-.21,7.36,7.36,0,0,1-1.38-.18c-.34-.1-.82.41-1.19.45s-.56,0-.36.49,0,.63.21.88a1.28,1.28,0,0,1,.23,1.09c-.11.23-1.44.73-1.67,1.24s-.41.66-.65.71a1.49,1.49,0,0,0-.83.77c-.06.3,0,.7-.05.8a1.1,1.1,0,0,1-.49.5c-.34.17-1.35.49-1.57.61a3.18,3.18,0,0,0-1.34.76c-.44.51-.73.14-1,1s-.79.75-.6,1.23.53,1.9.22,2.33a9.85,9.85,0,0,0-1.1,1.74c-.15.41-.15,1.29-.38,1.6a2.35,2.35,0,0,0-.55,1A2.12,2.12,0,0,0,10,26a4.1,4.1,0,0,1,.79,1.4,3.55,3.55,0,0,0,1.34,1.53c.64.42.69.8,1.16.78s.32-.23.1-.63,0-.49-.43-1-.31-.15-.43-.76a1.68,1.68,0,0,1,.24-1.46c.32-.47.6-.81.78-1.12a2.76,2.76,0,0,1,2-.82c1-.08.31.57,1.56.6s1.34,1.25,2.56.9,1.24-.93,1.71-1.21,2.05,2.16,3.09,1.78.7.31,1.48-.52,1.34-1,1.09-1.88A10.35,10.35,0,0,0,26.48,21.45Z"/><path class="cls-9" d="M28.25,10.66A5.12,5.12,0,0,0,27.9,9a1.32,1.32,0,0,0-1.23-.64,2,2,0,0,0-1.32.84.7.7,0,0,0-.15.67c.07.16.66.48.59.67-.28.77.7,1.49.36,2.24-.09.21-.31.26-.42.44a1.9,1.9,0,0,0,0,1.75c.09.19.4.63.68.51s.1-.41.17-.57a5.81,5.81,0,0,1,1.73-2,1.51,1.51,0,0,0,.58-.67c.13-.4-.15-.72-.36-1A1.8,1.8,0,0,1,28.25,10.66Z"/></g><path class="cls-10" d="M2.78,9.52c.36-.43.93-.42,1.39-.66.62-.32.43-1.09,1-1.38.36-.19.83.08,1.21-.15a1.07,1.07,0,0,0,.39-.69c0-.18.45-.35.64-.41s.61,0,.74-.17.66.3,1.11.17c.67-.2-.13-.85-.35-1.09-.64-.74.36-1.09.88-1.39a1.94,1.94,0,0,0,1.07-1.3c.08-.35.69-.41,1-.55s.6-.59,1.05-.64,2.28.26,2.13-.75a.81.81,0,0,1,0-.22A18.3,18.3,0,0,0,2,10,2.36,2.36,0,0,0,2.78,9.52Z"/><path class="cls-10" d="M21.1.23c.19.14.42.29.42.49,0,.37-.32.41-.62.52A2.46,2.46,0,0,0,19.44,2.4l0,.09a.83.83,0,0,0,.76.25c.43,0,.85-.09,1.28-.07s.95.12,1.43.17A24.29,24.29,0,0,1,25.52,3a2.76,2.76,0,0,1,1.56,1.29,4.88,4.88,0,0,0,1.77,1.81,2.61,2.61,0,0,1,1.51,1.42A12.82,12.82,0,0,0,32,10a3.08,3.08,0,0,1,.53,1.11,2.35,2.35,0,0,1-.3,1.26.08.08,0,0,1-.1.06,3.53,3.53,0,0,1-.72-.22,1,1,0,0,1-.28.66l0,0a1.1,1.1,0,0,1,.2.4c0,.21.12.45.11.63s-.12.86.2,1.07.32.62.48.66.33.32.65-.42-.08-.6.31-.74.55.15.44.49-.21.44-.08.68a1.57,1.57,0,0,1-.1,1.23c-.2.27-.43.87-.22,1.2s0,.57-.17.74-.45.68-.38.9.23.55.45.64.62.22.86,0,.37-.69.79-.65.85-.48,1.19-.94.18-1.06.66-1.33A18.23,18.23,0,0,0,21.1.23Z"/><path class="cls-10" d="M35.09,22.3a2.25,2.25,0,0,1-.83,1.19c-.17.11-.2.6-.27,1.08s.1,2.63.1,2.63h0a17.92,17.92,0,0,0,2-5.59C35.89,21.66,35.23,21.81,35.09,22.3Z"/><path class="cls-10" d="M26.29,21.25c-.3-.46-.74-.44-.65-.85a.92.92,0,0,0-.19-.91c-.18-.13-.25-.85-.61-.29a3.1,3.1,0,0,1-.75.9c-.17.14-.11.26-.26.65s-.71.57-.87.64-.05-.12-.12-.6.08-.52-.09-.94.14-.19-.37-.72-.85-.39-.67-.89a1.39,1.39,0,0,1,.7-.8c.23-.13,1.17-1,1.63-.78a1.5,1.5,0,0,0,1.21,0c.22-.15.8-.18.68-.56a.73.73,0,0,0-.71-.54c-.32,0-.72-.28-.77-.5s.1-.27-.29-.68a3.6,3.6,0,0,1-.6-.87,4.26,4.26,0,0,1-.29-1.65c0-1,.21-1-.13-1.22s-.16-.6,0-.91.6-.56.31-1,.06-.44-.27-.75l-.33-.27a2.27,2.27,0,0,1-.36-.33.8.8,0,0,0-.54-.21,7.75,7.75,0,0,1-1.4-.18c-.35-.1-.83.41-1.21.46s-.56,0-.36.49,0,.64.21.9a1.28,1.28,0,0,1,.24,1.1c-.12.23-1.47.74-1.69,1.26S17.28,12,17,12a1.46,1.46,0,0,0-.84.78c-.06.3,0,.71-.05.81a1.09,1.09,0,0,1-.5.5c-.34.18-1.37.5-1.6.63a3.28,3.28,0,0,0-1.36.76c-.43.53-.73.15-1,1.08s-.8.76-.6,1.24.53,1.93.21,2.36a11.18,11.18,0,0,0-1.11,1.77,10.15,10.15,0,0,1-.38,1.62,2.54,2.54,0,0,0-.57,1,2.26,2.26,0,0,0,.41,1.28,4.08,4.08,0,0,1,.81,1.42,3.6,3.6,0,0,0,1.36,1.56c.64.42.7.8,1.17.78s.33-.23.1-.64,0-.5-.44-1.06-.31-.15-.43-.77a1.66,1.66,0,0,1,.25-1.48c.32-.48.6-.83.78-1.14a2.84,2.84,0,0,1,2-.84c1-.07.32.58,1.59.62s1.36,1.27,2.6.91,1.26-.95,1.73-1.23,2.08,2.2,3.14,1.81.71.32,1.5-.53,1.36-1.06,1.11-1.9A10.57,10.57,0,0,0,26.29,21.25Z"/><path class="cls-10" d="M28.11,10.15a5.3,5.3,0,0,0-.35-1.68,1.37,1.37,0,0,0-1.25-.65,2.11,2.11,0,0,0-1.34.85.7.7,0,0,0-.15.69c.07.15.67.48.6.68-.29.78.71,1.51.36,2.27-.09.21-.31.26-.43.44a2,2,0,0,0,0,1.78c.1.19.41.64.69.52s.1-.41.18-.58a5.86,5.86,0,0,1,1.75-2.05,1.54,1.54,0,0,0,.6-.68c.13-.41-.16-.73-.37-1.06A1.83,1.83,0,0,1,28.11,10.15Z"/><g class="cls-11"><path class="cls-10" d="M2.94,9.35A4.08,4.08,0,0,0,3.84,8a5.68,5.68,0,0,1,.93-1.6A10.56,10.56,0,0,1,6.33,5.11a19.87,19.87,0,0,0,2-1.44,6.47,6.47,0,0,0,.6-.78q.28-.35.6-.66A18.29,18.29,0,0,0,2,10a4.08,4.08,0,0,0,.42-.19C2.6,9.65,2.8,9.47,2.94,9.35Z"/><path class="cls-10" d="M33.37,20.21a.66.66,0,0,1-.38-.72,1.21,1.21,0,0,1,.45-.92c.49-.4.07-1.06.16-1.6s.64-1.25.46-2a7.86,7.86,0,0,0-.82-1.64,4.5,4.5,0,0,0-1.06,1.16.09.09,0,0,1-.15,0c-.21-.49-.72-1.31-.06-1.64.2-.11.44-.14.64-.24a1,1,0,0,0,.47-.68c.12-.42.17-.87.25-1.3a.87.87,0,0,1-.93-.43,13.66,13.66,0,0,1-1-1.86,5.51,5.51,0,0,1-.44-1,3.89,3.89,0,0,0-.3-.89c-.1-.18-.34-.18-.52-.24a2.76,2.76,0,0,1-.81-.39c-.32-.21-.61-.46-.91-.7a7.67,7.67,0,0,1-.81-.7c-.48-.54-.86-1.39-1.56-1.69a6.6,6.6,0,0,0-2.35-.11,7.5,7.5,0,0,1-2.34-.43.1.1,0,0,1-.05-.13c.14-.33.78-1.07.4-1.4-.18-.16-.4-.25-.55-.41H21.1c.19.14.42.29.42.49,0,.37-.32.41-.62.52A2.46,2.46,0,0,0,19.44,2.4l0,.09a.83.83,0,0,0,.76.25c.43,0,.85-.09,1.28-.07s.95.12,1.43.17A24.29,24.29,0,0,1,25.52,3a2.76,2.76,0,0,1,1.56,1.29,4.88,4.88,0,0,0,1.77,1.81,2.61,2.61,0,0,1,1.51,1.42A12.82,12.82,0,0,0,32,10a3.08,3.08,0,0,1,.53,1.11,2.35,2.35,0,0,1-.3,1.26.08.08,0,0,1-.1.06,3.53,3.53,0,0,1-.72-.22,1,1,0,0,1-.28.66l0,0a1.1,1.1,0,0,1,.2.4c0,.21.12.45.11.63s-.12.86.2,1.07.32.62.48.66.33.32.65-.42-.08-.6.31-.74.55.15.44.49-.21.44-.08.68a1.57,1.57,0,0,1-.1,1.23c-.2.27-.43.87-.22,1.2s0,.57-.17.74-.45.68-.38.9.23.55.45.64.62.22.86,0a1.4,1.4,0,0,0,.23-.3A.75.75,0,0,1,33.37,20.21Z"/><path class="cls-10" d="M34.38,26.1c.16-.59-.47-1.25,0-1.8a2.57,2.57,0,0,1,.67-.49,1.63,1.63,0,0,0,.73-.86,2.44,2.44,0,0,1,.14-.28c.09-.35.17-.7.23-1.05-.26,0-.92.19-1.06.68a2.25,2.25,0,0,1-.83,1.19c-.17.11-.2.6-.27,1.08a21.37,21.37,0,0,0,.07,2.3C34.17,26.59,34.32,26.31,34.38,26.1Z"/><path class="cls-10" d="M11.88,28.86c-.26-.24-.75-.65-.75-1.05,0-.15,0-.29,0-.44s-.21-.44-.36-.62-.41-.49-.61-.75a1.55,1.55,0,0,1-.4-1.37A9.24,9.24,0,0,1,10.62,23c.27-.62.16-1.35.5-1.93s1-.9,1.11-1.5-.27-1.16-.37-1.78a1.76,1.76,0,0,1,1.08-1.9,3.7,3.7,0,0,0,.8-.5,2.57,2.57,0,0,1,.47-.39,4.68,4.68,0,0,1,1.48-.43,2.72,2.72,0,0,1,1.17-.08c.08,0,.45.15.48,0a1.61,1.61,0,0,0-.1-.75c-.17-.59-.37-.91.2-1.32.79-.57,1.24-1.54,2.12-2a1.73,1.73,0,0,1,.45-.1.72.72,0,0,0,.25,0c.23-.09.1-.52,0-.61s-.48-.44-.32-.66.49-.39.21-.7c-.12-.13-.26-.25-.38-.39s-.2-.32-.07-.46a1,1,0,0,1,.82-.17,2.37,2.37,0,0,0,.76-.07,5.3,5.3,0,0,1-.77-.13c-.35-.1-.83.41-1.21.46s-.56,0-.36.49,0,.64.21.9a1.28,1.28,0,0,1,.24,1.1c-.12.23-1.47.74-1.69,1.26S17.28,12,17,12a1.46,1.46,0,0,0-.84.78c-.06.3,0,.71-.05.81a1.09,1.09,0,0,1-.5.5c-.34.18-1.37.5-1.6.63a3.28,3.28,0,0,0-1.36.76c-.43.53-.73.15-1,1.08s-.8.76-.6,1.24.53,1.93.21,2.36a11.18,11.18,0,0,0-1.11,1.77,10.15,10.15,0,0,1-.38,1.62,2.54,2.54,0,0,0-.57,1,2.26,2.26,0,0,0,.41,1.28,4.08,4.08,0,0,1,.81,1.42,3.6,3.6,0,0,0,1.36,1.56,5.13,5.13,0,0,1,.71.61A5.4,5.4,0,0,0,11.88,28.86Z"/><path class="cls-10" d="M24.68,25.37c-.5,0-.91.34-1.38,0a4.18,4.18,0,0,1-1.11-1.29c-.1-.18-.16-.4-.35-.5a4.35,4.35,0,0,0-.92-.38c-.88-.23-.85.5-1.19,1.06a1.13,1.13,0,0,1-1,.63c-.27,0-.54-.08-.81-.09a1.38,1.38,0,0,0,1.44.42c1.24-.35,1.26-.95,1.73-1.23s2.08,2.2,3.14,1.81c.74-.28.79,0,1-.12A.94.94,0,0,0,24.68,25.37Z"/><path class="cls-10" d="M26,14.7a1.94,1.94,0,0,1-.32-1.06.84.84,0,0,1,.22-.78c.25-.27.81-.7.62-1.12a4,4,0,0,1-.33-1.45,2,2,0,0,0-.27-1,3.47,3.47,0,0,1-.3-.37.84.84,0,0,1,.13-.78,2.43,2.43,0,0,0-.61.58.7.7,0,0,0-.15.69c.07.15.67.48.6.68-.29.78.71,1.51.36,2.27-.09.21-.31.26-.43.44a2,2,0,0,0,0,1.78c.1.19.41.64.69.52a.17.17,0,0,0,.11-.11A1.41,1.41,0,0,1,26,14.7Z"/></g><path class="cls-12" d="M4.27,27.87A21.1,21.1,0,0,1,.79,18v0a17.51,17.51,0,0,1-.12-2.5A17.34,17.34,0,0,0,2.92,27.21a17.59,17.59,0,0,0,17.64,8.52S10,36.92,4.27,27.87Z"/></g></g></g></svg>