<svg xmlns="http://www.w3.org/2000/svg" xmlns:xlink="http://www.w3.org/1999/xlink" viewBox="0 0 73.24 70.49"><defs><style>.cls-1{isolation:isolate;}.cls-2{fill:url(#radial-gradient);}.cls-3{fill:url(#radial-gradient-2);}.cls-4{opacity:0.9;mix-blend-mode:multiply;fill:url(#radial-gradient-3);}.cls-5{fill:#fcfadb;opacity:0.7;mix-blend-mode:color-dodge;}</style><radialGradient id="radial-gradient" cx="36.26" cy="35.07" r="37.49" gradientUnits="userSpaceOnUse"><stop offset="0.35" stop-color="#f89f4e"/><stop offset="0.58" stop-color="#f8a14d"/><stop offset="0.67" stop-color="#f7a84b"/><stop offset="0.72" stop-color="#f6b348"/><stop offset="0.77" stop-color="#f5c243"/><stop offset="0.82" stop-color="#f5bf42"/><stop offset="0.85" stop-color="#f4b641"/><stop offset="0.89" stop-color="#f3a63e"/><stop offset="0.92" stop-color="#f2903a"/><stop offset="0.94" stop-color="#f17335"/><stop offset="0.97" stop-color="#ef4f2e"/><stop offset="0.99" stop-color="#ed2627"/><stop offset="1" stop-color="#ec1c25"/></radialGradient><radialGradient id="radial-gradient-2" cx="22.75" cy="20.12" r="47.46" gradientUnits="userSpaceOnUse"><stop offset="0" stop-color="#eeea6b"/><stop offset="0.03" stop-color="#efe168"/><stop offset="0.14" stop-color="#f1ba5b"/><stop offset="0.25" stop-color="#f39d52"/><stop offset="0.35" stop-color="#f58c4d"/><stop offset="0.42" stop-color="#f5864b"/><stop offset="0.46" stop-color="#f47c47"/><stop offset="0.71" stop-color="#f04835"/><stop offset="0.9" stop-color="#ed2829"/><stop offset="1" stop-color="#ec1c25"/></radialGradient><radialGradient id="radial-gradient-3" cx="27.56" cy="27.33" r="45.33" gradientUnits="userSpaceOnUse"><stop offset="0.29" stop-color="#fbe652"/><stop offset="1" stop-color="#f15d4c"/></radialGradient></defs><g class="cls-1"><g id="Слой_2" data-name="Слой 2"><g id="Layer_1" data-name="Layer 1"><path class="cls-2" d="M73.24,40.22s-5-1.76-5.45-4.72v-.65c.08-3,5.45-4.58,5.45-4.58s-5.94,0-6.71-2.84,4.16-4.91,4.16-4.91S65,22.91,63.84,20s2.69-6.08,2.69-6.08-4.18,1.91-7.21.3,1.55-6.87,1.55-6.87S56.56,10.48,54,9.91,54,3.2,54,3.2,51.12,6.8,47.8,6.8,45.26.37,45.26.37a9.22,9.22,0,0,1-4.6,4.31c-2.56.9-3.74-3.33-4-4.68-.31,1.35-1.49,5.58-4,4.68A9.17,9.17,0,0,1,28,.37s.78,6.43-2.54,6.43-6.15-3.6-6.15-3.6,2.61,6.15,0,6.71-6.93-2.54-6.93-2.54,4.6,5.26,1.56,6.87-7.22-.3-7.22-.3S10.53,17.12,9.4,20s-6.86,2.5-6.86,2.5,4.93,2.09,4.16,4.91S0,30.27,0,30.27s5.37,1.62,5.44,4.58v.65C5,38.46,0,40.22,0,40.22s5.94,0,6.7,2.84S2.54,48,2.54,48s5.73-.39,6.86,2.51-2.7,6.07-2.7,6.07,4.18-1.91,7.22-.3-1.56,6.87-1.56,6.87,4.31-3.11,6.93-2.54,0,6.71,0,6.71,2.83-3.6,6.15-3.6S28,70.12,28,70.12a9.17,9.17,0,0,1,4.59-4.31c2.56-.9,3.74,3.33,4,4.68.3-1.35,1.48-5.58,4-4.68a9.22,9.22,0,0,1,4.6,4.31s-.78-6.43,2.54-6.43S54,67.29,54,67.29s-2.62-6.15,0-6.71,6.92,2.54,6.92,2.54-4.59-5.26-1.55-6.87,7.21.3,7.21.3-3.82-3.18-2.69-6.07S70.69,48,70.69,48s-4.92-2.09-4.16-4.91S73.24,40.22,73.24,40.22Z"/><path class="cls-3" d="M65,35A28.35,28.35,0,1,1,36.62,6.7,28.34,28.34,0,0,1,65,35Z"/><path class="cls-4" d="M36.62,6.7A28.34,28.34,0,1,0,65,35,28.34,28.34,0,0,0,36.62,6.7Zm-2.12,49A23.46,23.46,0,1,1,58,32.26,23.46,23.46,0,0,1,34.5,55.72Z"/><path class="cls-5" d="M14.26,50.2c-4.09-5.89-4.49-11.52-4.75-15.59v0a26.6,26.6,0,0,1-.18-3.88A26.87,26.87,0,0,0,12.81,49C20,61.44,33.46,63.4,40.23,62.24,40.23,62.24,23.83,64,14.26,50.2Z"/></g></g></g></svg>