<svg xmlns="http://www.w3.org/2000/svg" viewBox="0 0 773.97 668.07"><defs><style>.cls-1{fill:#c44e33;}.cls-2{fill:#af412f;}.cls-3{fill:#424747;}.cls-4{fill:#f2c3b8;}.cls-5{fill:#f4e9dc;}.cls-6{fill:#e8ded4;}.cls-7{fill:#151616;}.cls-8{fill:#fff;}</style></defs><g id="Слой_2" data-name="Слой 2"><g id="Layer_2" data-name="Layer 2"><path class="cls-1" d="M253.34,312c-19.67,27-35.37,56.89-56.45,82.84C149.56,453.15,75.08,488.39,0,488c4.18,11,18.45,13,29.27,17.62,28.13,12.11,36.93,47.59,58.82,69,17.69,17.31,43.17,24.39,67.87,26s49.46-1.48,74.21-1.4c78.84.24,154.18,32.72,232.7,39.82,40.67,3.68,85.47-1,115.21-29,14.45-13.6,24-31.55,31.69-49.86A330.76,330.76,0,0,0,624.6,351.05c-4.52-17.34-10.58-34.57-20.88-49.24-15.54-22.12-39.85-37-65.55-45.35s-52.95-10.8-80-12.09c-37.66-1.79-89.88-9-126.13,2.69C300,257.43,272.61,285.55,253.34,312Z"/><path class="cls-2" d="M227.28,586.42c21.26-52.85,53.19-102.53,61.14-158.94-9.2,38.32-38.88,67.83-67.27,95.16C198,544.92,174.69,567.34,147.84,585a187.85,187.85,0,0,1-19.45,11.29A145.93,145.93,0,0,0,156,600.66c22.36,1.49,44.78-.92,67.19-1.34A82.24,82.24,0,0,1,227.28,586.42Z"/><path class="cls-2" d="M29.27,505.62c8.52,3.67,15.26,9.49,21.14,16.41,5.42-2.57,11.21-4.57,16.84-6.59,18-6.44,35.62-14,52.23-23.38a247.52,247.52,0,0,0,54.79-42.39,260.11,260.11,0,0,0,63.27-107.76c.58-2,1.8-6.2,3-11.19-14.2,21.63-27.29,44-43.6,64.11C149.56,453.11,75.08,488.35,0,488,4.18,499,18.45,501,29.27,505.62Z"/><path class="cls-2" d="M398.6,602.46c16.72-43.79,32.49-89.72,28.57-136.43-.84-10-13.59-15.29-23.1-12.15S388,465.6,382.58,474c-18,27.9-30.7,58.94-48.08,87.26-10.1,16.47-22.29,32.31-36.89,44.87,30.51,5.53,60.77,13.49,91.19,20.35C392.36,618.6,395.52,610.51,398.6,602.46Z"/><path class="cls-3" d="M203.71,229.83c-9.23-8.52-20.94-18.91-32.58-14.2-12,4.88-12.78,21.62-10,34.33,9.42,43.74,37.4,84.08,77.29,104.33s91.33,18.19,127.1-8.68c11-8.29,21.07-20.2,20.73-34-1-38.58-52.73-35.82-79.17-37.48A170.13,170.13,0,0,1,203.71,229.83Z"/><path class="cls-4" d="M206.77,263.91a8.2,8.2,0,0,1-.48,4.4,6.83,6.83,0,0,1-3.17,2.95,14.56,14.56,0,0,1-11.28.47,23.55,23.55,0,0,1-9.41-6.59c-3.8-4.19-6.59-9.64-6.26-15.28a6.8,6.8,0,0,1,.72-2.92,7.07,7.07,0,0,1,1.84-2c6.82-5.46,12.41-4.54,18.67,1.05A28.34,28.34,0,0,1,206.77,263.91Z"/><path class="cls-4" d="M180.5,234.16a5.93,5.93,0,0,1-.61,3.14,4.53,4.53,0,0,1-4.35,2,8.21,8.21,0,0,1-4.46-2.18c-3.54-3.11-5.08-10.86,1-12.42C177.16,223.39,180.36,230.06,180.5,234.16Z"/><path class="cls-4" d="M169.23,243.7a7.28,7.28,0,0,1,3.41,3.58,4.57,4.57,0,0,1-.71,4.73,4.67,4.67,0,0,1-5.1.89,7.94,7.94,0,0,1-3.82-3.81,7,7,0,0,1-.88-3.84,3.73,3.73,0,0,1,2.17-3.11c1.8-.71,3.75.44,5.33,1.54Z"/><path class="cls-4" d="M185.23,228.61c.06-.28,2.17-3.15,5.94-1.41,3,1.16,4.56,4.68,3.28,6.9s-4.61,2.73-6.74,1.31A6.58,6.58,0,0,1,185.23,228.61Z"/><path class="cls-3" d="M730.7,239.77c9.91-7.72,22.43-17.11,33.65-11.45,11.6,5.86,10.94,22.6,7.16,35-13,42.81-44.24,80.69-85.68,97.57s-92.51,10.56-125.93-19.19c-10.31-9.17-19.33-21.87-17.85-35.58,4.16-38.38,55.52-31.33,82-30.79A170.15,170.15,0,0,0,730.7,239.77Z"/><path class="cls-4" d="M724.58,272.86a8.13,8.13,0,0,0,.41,4.41,6.89,6.89,0,0,0,3.13,3,14.54,14.54,0,0,0,11.27.64,23.36,23.36,0,0,0,9.5-6.45c3.86-4.12,6.75-9.53,6.5-15.18a5.78,5.78,0,0,0-2.48-5c-6.74-5.57-12.35-4.73-18.68.76A28.28,28.28,0,0,0,724.58,272.86Z"/><path class="cls-4" d="M751.31,243.52a5.78,5.78,0,0,0,.55,3.15,4.54,4.54,0,0,0,4.32,2,8.22,8.22,0,0,0,4.5-2.11c3.59-3.06,5.24-10.78-.83-12.43C754.81,232.8,751.51,239.42,751.31,243.52Z"/><path class="cls-4" d="M762.42,253.23a7.3,7.3,0,0,0-3.46,3.52,4.6,4.6,0,0,0,.63,4.75,4.68,4.68,0,0,0,5.09,1,7.86,7.86,0,0,0,3.87-3.76,6.88,6.88,0,0,0,1-3.82,3.75,3.75,0,0,0-2.13-3.15c-1.78-.73-3.75.39-5.35,1.46Z"/><path class="cls-4" d="M746.65,237.9c0-.29-2.12-3.18-5.92-1.5-3,1.11-4.62,4.61-3.37,6.85s4.56,2.79,6.71,1.41A6.57,6.57,0,0,0,746.65,237.9Z"/><path class="cls-5" d="M293.56,270a408.79,408.79,0,0,0-19.64,148.31c2.38,45.07,14,92.83,48.22,123.83C341.29,559.49,366,570.08,391,577.76c42.62,13.1,88.39,18.6,132.14,10.42s85.3-30.93,110.56-66.22c17.82-24.89,26.93-54.78,31.49-84.78,7.42-48.84,3.12-100.16-17.9-145.39S587.52,208,539.15,191.25c-20.31-7-41.81-10.17-63.26-12.07-40.18-3.57-80.46-1.69-116.11,17.73-11.5,6.27-26.2,10.18-36.19,18.38C307.8,228.25,299.6,251.54,293.56,270Z"/><path class="cls-3" d="M679.92,41.26c-3.78-17-17.7-31-34.24-36.53s-35.17-3.28-50.83,4.41a55.28,55.28,0,0,0-16.93,12.28c-15.57,17.28-13.59,46.18,1.5,63.88,12.72,14.92,52,33.3,70.62,18.58,3.52-2.79,4.12-7.82,6.77-11.28,3.85-5,9.64-8.25,13.63-13.31C678.76,68.73,682.86,54.54,679.92,41.26Z"/><path class="cls-4" d="M653.37,66.61C655.94,61.27,656,55,655,49.18a22.5,22.5,0,0,0-2.08-6.93c-2.27-4.28-6.62-7.07-11.07-9-7.94-3.39-17.15-4.5-25.22-1.42S602.07,42.72,602,51.35c0,6.35,3.31,12.4,8,16.68s10.61,7,16.65,9C635.91,80.05,648.91,75.88,653.37,66.61Z"/><path class="cls-3" d="M261.44,39.61c3.77-17,17.7-31,34.24-36.53S330.85-.2,346.51,7.49a55.25,55.25,0,0,1,16.93,12.27C379,37.05,377,66,361.94,83.65c-12.72,14.91-52,33.3-70.62,18.58-3.53-2.79-4.12-7.82-6.77-11.29-3.85-5-9.65-8.24-13.63-13.3C262.6,67.08,258.49,52.89,261.44,39.61Z"/><path class="cls-4" d="M288,65c-2.57-5.34-2.59-11.58-1.63-17.43a22.37,22.37,0,0,1,2.08-6.94c2.27-4.27,6.61-7.06,11.07-9,7.93-3.39,17.15-4.5,25.21-1.43s14.57,10.86,14.62,19.49c0,6.36-3.31,12.4-8,16.69s-10.61,7-16.65,9C305.45,78.4,292.45,74.23,288,65Z"/><path class="cls-5" d="M640.38,66.66c-22.19-24.32-52.18-40.57-83.6-50.38-28.3-8.83-143.39-8.83-171.69,0-31.42,9.81-61.42,26.06-83.6,50.38a148.3,148.3,0,0,0-37.22,115.65,148.29,148.29,0,0,0,63,103.87c25.94,17.65,56.91,26.5,87.88,31.56,18.44,3,93.11,3,111.55,0,31-5.06,61.94-13.91,87.88-31.56a148.29,148.29,0,0,0,63-103.87A148.34,148.34,0,0,0,640.38,66.66Z"/><path class="cls-3" d="M320.54,100.26c-9.77,9.5-18.54,21.42-19.92,35.38-2,20.72,15.82,41.06,35.47,40.41,13.75-.46,25.87-9.42,36.33-18.9s20.58-20.09,33.51-25.08c13.32-5.13,30.32-5,38-17.64,6.3-10.35,2.31-24.92-6.08-33.44C404,46.59,349.82,71.77,320.54,100.26Z"/><path class="cls-6" d="M637.82,63.31c7.39,19.23,10.68,39.7,7.26,59.92-7.06,41.7-40.76,73.85-76.5,96.45C522.37,248.9,469,267.73,414.33,269.47c-46,1.46-92.77-9.67-132-33.5,11.07,19.94,25.73,25.36,44.6,38.19,25.94,17.65,61.28,4.33,92.24,9.39,18.45,3,95.41,3.27,113.86.26,31-5.07,82.15,2.37,82.15,2.37a148.33,148.33,0,0,0,63-103.87A148.34,148.34,0,0,0,641,66.66C640,65.52,638.9,64.41,637.82,63.31Z"/><path class="cls-3" d="M445.94,165.8c-3.6.28-7.3.72-10.47,2.45s-5.74,5-5.59,8.63c.19,4.62,4.55,8,8.9,9.55s9.12,2,13.12,4.38c4.92,2.86,7.93,8.08,12.05,12s10.87,6.53,15.36,3c2.1-1.64,3.19-4.24,5-6.19,4.73-5.11,12.77-4.6,19.46-6.53A18.38,18.38,0,0,0,514.19,186c2.36-3.61,2.89-8.54.7-12.26-2.87-4.85-9.12-6.3-14.7-7.05C482.57,164.26,463.66,164.42,445.94,165.8Z"/><path class="cls-7" d="M365.43,100.09c-2.78,5-2.17,11.93,2,15.85a17.35,17.35,0,0,0,6.54,3.54c3.12,1,6.51,1.58,9.66.69a15.6,15.6,0,0,0,5.7-3.25c3.37-2.87,6.06-6.74,6.71-11.11s-1-9.22-4.76-11.61C383.27,89,370.1,91.71,365.43,100.09Z"/><path class="cls-8" d="M373.07,98.69c-1.88,1.56-3.73,3.89-3,6.21a3.52,3.52,0,0,0,4.59,2c1.24-.56,2-1.79,3.05-2.66,1.94-1.62,4.9-2.08,6.12-4.29a2.23,2.23,0,0,0,.31-1.15c-.06-1.14-1.32-1.83-2.45-1.92C378.4,96.63,375.81,96.42,373.07,98.69Z"/><path class="cls-1" d="M475.07,280a116.3,116.3,0,0,1-37.63,10.38c-12.73,1.28-25.57.44-38.33-.39-34.54-2.26-69.23-4.55-103-12-12.27-2.7-24.52-6.14-35.54-12.18,12.92-.17,28.2-9.72,39.52-6.46,13.62,3.94,26.33,11.09,40.25,14.79,28.17,7.48,57.49,10,86.57,9.39q12.11-.24,24.18-1.16C457.79,281.82,469,282.8,475.07,280Z"/><path class="cls-1" d="M445.46,290.23c-.7,4.42,1.19,9,4.26,12.23a26.9,26.9,0,0,0,11.44,6.72c6.31,2.07,13.23,2.74,19.6.88s12.1-6.5,14.34-12.75.44-14-4.91-17.92C478.37,270.73,448.38,271.84,445.46,290.23Z"/><path class="cls-1" d="M424.42,304.59c-7.27,7.54-13.38,16.17-20.94,23.42C383.3,347.35,354.7,355.12,327,358.72c35.41,17.22,80.6,12,111.12-12.89,14.05-11.46,25.39-27.66,26.37-45.77a47.74,47.74,0,0,1-1.13,26.36c-4.71,13.56-15.86,23.91-27.8,31.88S410.49,372.44,399,381s-21.67,20.23-24.24,34.35c13.43-14.66,34.07-20,53.67-23.37,8.2-1.4,16.44-2.57,24.48-4.68a105.8,105.8,0,0,0,44.29-23.86,39,39,0,0,0,7.84-9.13c2.81-4.89,3.81-10.6,4.75-16.16,1.88-11.05,3.51-23.36-2.78-32.63-4.2-6.18-11.23-9.81-18.22-12.45C465.75,284.36,441.85,286.52,424.42,304.59Z"/><path class="cls-6" d="M626.85,258.78c-39.6-2-80,15.37-120.49,17.76,30.09,20.33,55.53,48.2,70.25,81.4s18.18,71.8,6.7,106.25c-17.24,51.75-67.44,89-121.34,97.32s-109.91-9.84-153.5-42.62L297.2,507.64c-.72,0-1.43.09-2.14.17a125.32,125.32,0,0,0,27.13,35.79C341.34,560.94,366,571.53,391,579.21c42.62,13.11,88.39,18.6,132.15,10.42s85.29-30.93,110.55-66.22c17.82-24.89,26.93-54.78,31.49-84.78,7.42-48.84,3.12-100.16-17.9-145.39A200.84,200.84,0,0,0,626.85,258.78Z"/><path class="cls-3" d="M591.8,640a66.58,66.58,0,0,1,39.42,15.08c1.84,1.52,3.75,3.56,3.41,5.91-.46,3.13-4.34,4.25-7.49,4.63a340.92,340.92,0,0,1-121.23-7.09q4.3-29.87,8.62-59.73a32.61,32.61,0,0,1,2.13-8.81c2.72-6,8.72-9.69,14.4-13,26.73-15.51,54.15-30.24,78.09-49.77,26.21-21.39,39.83-45.54,53.93-75.28,4.77,25.11-9.41,58.74-17.68,81.94A476.56,476.56,0,0,1,591.8,640Z"/><path class="cls-3" d="M273,370.12c1,4.11,108.35,45.24,185.41,45.24,128.77,0,210.12-40.13,210.12-40.13l-.87,40.13-4.57,36.56s-69,58.1-188,54.91c-138.64-3.71-198.41-60.68-198.41-60.68L273,412.22Z"/><path class="cls-5" d="M533.07,460.6c0,22.45-26,40.65-58,40.65s-58-18.2-58-40.65,26-40.66,58-40.66S533.07,438.14,533.07,460.6Z"/><path class="cls-1" d="M475.07,502.59c-32.71,0-59.33-18.84-59.33-42s26.62-42,59.33-42,59.33,18.84,59.33,42S507.79,502.59,475.07,502.59Zm0-81.32c-31.24,0-56.66,17.64-56.66,39.33s25.42,39.32,56.66,39.32,56.66-17.64,56.66-39.32S506.32,421.27,475.07,421.27Z"/><path class="cls-1" d="M472.87,451.42c-5.11-14.32-36.83-12.6-29.17,4,4.35,9.42,15.65,7.24,23.79,9.77,3.95,1.23,10.61,5.8,5.47,10.51-2,1.8-6.12,2.37-8.68,2.55a21.09,21.09,0,0,1-7.7-.8c-.4-.12-8.08-4.46-7.24-4.85,1.83-.89,1-4-1-3.86-3.8.25-4.48,3.56-2.63,6.52,2.18,3.48,6.53,5.76,10.37,6.78,7.1,1.88,22.24,1,23.23-8.63,1.31-12.69-15-12.72-23.19-14.46-3.21-.69-6.79-2-8.36-5.12-2.69-5.42,2.76-8.12,7.22-8.4,6.79-.42,11.49,3.23,16.69,6.94a.86.86,0,0,0,1.25-1Z"/><path class="cls-1" d="M481.37,442.7c-1.7,6.11-1.34,13-1.42,19.32-.09,7,0,14,.22,21,.09,3,4.48,2.49,4.07-.55-.11-.93-.25-1.86-.43-2.77-.37-2.07-3.21-1.33-3.4.46-.12.95-.2,1.9-.24,2.86h4.14q-.48-10.5-.63-21c-.08-6.33.53-13.1-.75-19.32a.81.81,0,0,0-1.56,0Z"/><path class="cls-1" d="M481,444.47c2.3-2.83,8-2.71,11.24-2.56,5.05.23,10.44,2,11.93,7.39a9,9,0,0,1-8.28,11.28c-4.44.29-8.73-2-13.09-2.53-1.93-.23-2.75,2.92-1,3.71,6.07,2.73,14.52,5.08,20.63,1.3a13.22,13.22,0,0,0,5.8-14.88c-3.21-11.14-22.1-14.53-27.74-4.1-.16.3.27.68.51.39Z"/><path class="cls-1" d="M458.4,278.63A116,116,0,0,0,495.74,290c12.69,1.63,25.54,1.14,38.33.65,34.58-1.32,69.33-2.66,103.31-9.2,12.34-2.37,24.68-5.47,35.86-11.21-12.91-.52-27.92-10.48-39.33-7.52-13.72,3.56-26.62,10.36-40.64,13.68-28.36,6.71-57.73,8.4-86.79,7-8.06-.38-16.11-1-24.14-1.81C475.63,281,464.41,281.65,458.4,278.63Z"/><path class="cls-3" d="M348.9,640a66.58,66.58,0,0,0-39.42,15.08c-1.84,1.52-3.75,3.56-3.41,5.91.46,3.13,4.34,4.25,7.48,4.63a341,341,0,0,0,121.24-7.09q-4.31-29.87-8.62-59.73A32.26,32.26,0,0,0,424,590c-2.71-6-8.71-9.69-14.39-13-26.73-15.51-54.15-30.24-78.09-49.77-26.22-21.39-39.83-45.54-53.93-75.28C272.85,477,287,510.66,295.3,533.86A476.13,476.13,0,0,0,348.9,640Z"/><path class="cls-3" d="M621.13,101.92c9.61,9.5,18.25,21.41,19.61,35.38,2,20.71-15.58,41-34.93,40.4-13.55-.46-25.48-9.42-35.78-18.9s-20.27-20.09-33-25.08c-13.11-5.13-29.86-5-37.41-17.64-6.2-10.34-2.27-24.92,6-33.44C539,48.24,592.29,73.43,621.13,101.92Z"/><path class="cls-7" d="M554.21,103.29c-2.79,5-2.18,11.93,2,15.84a17.34,17.34,0,0,0,6.55,3.55c3.11,1,6.5,1.58,9.65.69a15.4,15.4,0,0,0,5.7-3.26c3.37-2.86,6.06-6.73,6.72-11.11s-1.05-9.21-4.77-11.6C572.05,92.24,558.87,94.91,554.21,103.29Z"/><path class="cls-8" d="M561.85,101.89c-1.88,1.56-3.74,3.89-3,6.21a3.5,3.5,0,0,0,4.58,2c1.24-.56,2-1.78,3-2.65,1.94-1.62,4.91-2.08,6.12-4.29a2.29,2.29,0,0,0,.31-1.16c-.06-1.13-1.31-1.83-2.44-1.91C567.17,99.83,564.58,99.62,561.85,101.89Z"/><path class="cls-3" d="M510.3,225.14c8-4.08,15.95-8.81,22.21-15.67-9.22,16.87-21.16,33.38-38,40-12.29,4.85-26.09,3.85-38.4-.93s-23.26-13.13-33-22.69a76,76,0,0,1-11.81-14.21c6.74,5.31,12.93,10.58,20.82,13.78C463,238,500.77,230,510.3,225.14Z"/><path class="cls-8" d="M343.53,67c8.25.54,16.13-3.51,22.77-8.44s12.56-10.86,19.71-15c14.27-8.28,31.57-8.59,47.87-11.19,3.21-.51,7.41-2.86,6-5.8a4.92,4.92,0,0,0-2.47-2.08c-8.38-4.11-18.23-3.69-27.48-2.42a170.71,170.71,0,0,0-62.76,21.74c-4.22,2.48-13.88,7.7-15,13C330.92,62.92,338.29,66.7,343.53,67Z"/><path class="cls-8" d="M317.48,71.5a38.41,38.41,0,0,0-9.83,8.76,16,16,0,0,0-3.49,6.82,7.48,7.48,0,0,0,2.18,7,7.86,7.86,0,0,0,4.81,1.6c7,.16,12.65-5.84,15.79-12.11a12.84,12.84,0,0,0,1.64-5.43A7.45,7.45,0,0,0,315.65,73Z"/></g></g></svg>